<?xml version="1.0" encoding="utf-8"?>
<!-- Generator: Adobe Illustrator 23.0.6, SVG Export Plug-In . SVG Version: 6.00 Build 0)  -->
<svg version="1.1" id="Camada_1" xmlns="http://www.w3.org/2000/svg" xmlns:xlink="http://www.w3.org/1999/xlink" x="0px" y="0px"
	 viewBox="0 0 1206.6 222.6" style="enable-background:new 0 0 1206.6 222.6;" xml:space="preserve">
<style type="text/css">
	.st0{fill-rule:evenodd;clip-rule:evenodd;fill:#161642;}
	.st1{fill-rule:evenodd;clip-rule:evenodd;fill:#CD1F26;}
	.st2{fill-rule:evenodd;clip-rule:evenodd;fill:#FFFFFF;}
</style>
<g>
	<path class="st0" d="M331.5,64.1h-56.7v18h35c-3,10.1-15.3,18-27.3,18c-16.7,0-30.4-14.4-30.4-30.5c0-16.2,13.7-30.4,30.4-30.4
		c10.1,0,19.2,6.3,25,14.4L325,43.3c-9.2-13.8-25-22.8-42.4-22.8c-27.8,0-50.5,22.1-50.5,49c0,27,22.7,49,50.5,49
		c25.3,0,46.9-17.2,49-41.4c0.1-1.9,0.3-3.8,0.3-5.4C331.8,69.7,331.6,66.7,331.5,64.1L331.5,64.1z M551.6,63l64.7,56.7V22.4h-20.3
		v54.5l-64.6-57.6v97.5h20.1V63L551.6,63z M757.4,92.4l-18.8-7.4c-5.6,8.3-15.3,15-25.6,15c-16.7,0-30.1-14.4-30.1-30.5
		c0-16.2,13.5-30.4,30.1-30.4c10.4,0,20,6.6,25.6,14.7l18.8-7.4c-9-15.4-25.6-25.9-44.5-25.9c-27.8,0-50.5,22-50.5,48.9
		c0,27,22.7,49,50.5,49C731.8,118.5,748.4,108.1,757.4,92.4L757.4,92.4z M805,118.4c25.4,0,41.8-15.8,41.8-39.9V22.4h-20.3v56.1
		c0,17.8-13.6,22.4-21.5,22.4c-8.2,0-21.8-4.5-21.8-22.4V22.4h-20.3v56.1C762.9,102.6,779.5,118.4,805,118.4L805,118.4z
		 M879.7,116.7V87.3h13.8c7.7,10.3,14.7,19.8,22.4,29.5h24.2c-7.6-10.1-16.2-21.5-24.2-31.7c11.7-5,19.1-16.3,19.1-30
		c0-19.4-13.7-32.8-33.8-32.8h-41.7v94.5L879.7,116.7L879.7,116.7z M879.7,69.5V39.9h21.5c11.9,0,13.7,10.2,13.7,15.1
		c0,9.8-7.4,14.5-13.7,14.5L879.7,69.5L879.7,69.5z M951.2,88.2l-10.8,15.6c8.7,7.5,22.1,14.7,42.3,14.7c22.2,0,37.3-9.7,37.3-29.3
		c0-25.3-24.2-27.3-39.5-30.5c-8.5-1.8-18.6-3.4-18.6-10.1c0-7.5,10.3-9.3,16.2-9.3c9.1,0,18.5,3.9,26.5,9.7l11.3-15.5
		c-10.3-7.6-20.6-12.7-37-12.7c-16.5,0-37.2,6.1-37.2,28.6c0,22.6,25.4,27,37.2,28.9c10.9,1.9,20.9,3.9,20.9,11.4
		c0,5.3-6.2,10.5-17.3,10.5C971.7,100.2,958,93.8,951.2,88.2L951.2,88.2z M1072.5,118.5c27.9,0,50.6-22,50.6-49.1
		c0-26.9-22.7-49-50.6-49c-27.8,0-50.4,22.1-50.4,49C1022.1,96.6,1044.7,118.5,1072.5,118.5L1072.5,118.5z M1072.5,39
		c16.8,0,30.3,14.2,30.3,30.4c0,16.3-13.5,30.6-30.3,30.6c-16.7,0-30.3-14.4-30.3-30.6C1042.2,53.3,1055.8,39,1072.5,39L1072.5,39z
		 M1137.8,88.2l-10.8,15.6c8.7,7.5,22.1,14.7,42.3,14.7c22.2,0,37.3-9.7,37.3-29.3c0-25.3-24.2-27.3-39.5-30.5
		c-8.5-1.8-18.6-3.4-18.6-10.1c0-7.5,10.3-9.3,16.2-9.3c9.1,0,18.5,3.9,26.5,9.7l11.3-15.5c-10.3-7.6-20.6-12.7-37-12.7
		c-16.5,0-37.2,6.1-37.2,28.6c0,22.6,25.4,27,37.2,28.9c10.9,1.9,20.9,3.9,20.9,11.4c0,5.3-6.2,10.5-17.3,10.5
		C1158.3,100.2,1144.6,93.8,1137.8,88.2z"/>
	<path class="st0" d="M362.9,116.7V87.3h13.8c7.7,10.3,14.7,19.8,22.4,29.5h24.2c-7.6-10.1-16.2-21.5-24.2-31.7
		c11.7-5,19.1-16.3,19.1-30c0-19.4-13.7-32.8-33.8-32.8h-41.7v94.5L362.9,116.7L362.9,116.7z M362.9,69.5V39.9h21.5
		c11.9,0,13.7,10.2,13.7,15.1c0,9.8-7.4,14.5-13.7,14.5L362.9,69.5L362.9,69.5z M425.2,116.7h22.3l7.2-14.5h43.7l7.4,14.5H528
		l-51.4-97.5L425.2,116.7L425.2,116.7z M464.7,84.8l11.9-24.7l12,24.7H464.7z"/>
	<path class="st1" d="M222.6,111.3c0,61.5-49.8,111.3-111.3,111.3S0,172.8,0,111.3C0,49.8,49.8,0,111.3,0
		C172.8,0,222.6,49.8,222.6,111.3z"/>
	<path class="st2" d="M110.5,134.9l0.4-36.7l93.7,0.9c0.1,1.2,0.3,2.4,0.5,4.1c0.4,2.5,0.3,3.4,0.5,6.2c2.1,26.6-8.5,53.5-24.7,70
		c-16.2,16.5-38.9,24.6-68,24.3c-14.3-0.1-27-2.4-38.1-6.8c-11.1-4.4-21-11-29.7-19.9c-8.3-8.5-14.7-18.5-19.2-30
		c-4.5-11.5-6.7-23.5-6.6-36.1C19.4,98,21.8,86,26.4,75C31,64.1,37.8,54.3,46.8,45.6c8.9-8.5,19.2-14.8,30.7-19.1
		c11.5-4.3,23.9-6.4,37.2-6.2c17.3,0.2,33.2,2.6,45.8,10.6c30.8,19.4,39.3,47.6,39.8,49.8l-48.4,0.3c-4.9-6.8-10.5-11.9-16.7-15.3
		c-6.2-3.4-13.2-5.1-20.9-5.2c-14.4-0.1-25.8,4.5-34.2,14c-8.4,9.5-12.7,22.5-12.8,39c-0.2,16.7,3.9,29.9,12.1,39.5
		c8.2,9.7,19.5,14.6,33.9,14.7c12.2,0.1,22.4-2.8,30.6-8.7c8.2-5.9,13.1-13.7,14.5-23.6L110.5,134.9z"/>
	<path class="st1" d="M276.3,128.8c-12.2,0-22.7,4.3-31.4,12.9c-8.6,8.6-13,19-13,31c0,12.1,4.3,22.4,13,30.9
		c8.6,8.4,19.1,12.7,31.4,12.7c12.2,0,22.7-4.2,31.4-12.7c8.7-8.5,13-18.8,13-30.9c0-12-4.4-22.4-13-31
		C299,133.1,288.5,128.8,276.3,128.8L276.3,128.8z M276.3,146.3c7.3,0,13.6,2.6,18.8,7.7c5.3,5.2,7.9,11.4,7.9,18.6
		c0,7.3-2.6,13.5-7.9,18.6c-5.3,5.1-11.5,7.6-18.8,7.6c-7.4,0-13.7-2.6-18.8-7.6c-5.2-5.1-7.8-11.3-7.8-18.6
		c0-7.2,2.6-13.4,7.8-18.6C262.6,148.9,268.9,146.3,276.3,146.3L276.3,146.3z M325.2,127.6v88.3h17.5v-48l52.7,49.6v-88.4h-17.6v48
		L325.2,127.6L325.2,127.6z M403.3,129.5v86.4H456v-17.2h-35.1v-69.1L403.3,129.5L403.3,129.5z M460.6,215.8h17.5v-86.4h-17.5V215.8
		L460.6,215.8z M486,127.6v88.3h17.5v-48l52.7,49.6v-88.4h-17.6v48L486,127.6L486,127.6z M564.1,129.2v86.7h52.7v-17.2h-35.1v-17.5
		h26.3v-17.3h-26.3v-17.4h35.1v-17.3L564.1,129.2L564.1,129.2z"/>
</g>
</svg>
