<svg width="162" height="30" viewBox="0 0 162 30" fill="none" xmlns="http://www.w3.org/2000/svg">
<path fill-rule="evenodd" clip-rule="evenodd" d="M44.5077 8.63881H36.8951V11.0647H41.5942C41.1914 12.4259 39.54 13.4906 37.9289 13.4906C35.6867 13.4906 33.8473 11.5499 33.8473 9.38005C33.8473 7.19676 35.6867 5.28301 37.9289 5.28301C39.2849 5.28301 40.5067 6.13207 41.2854 7.22371L43.635 5.83557C42.3998 3.97574 40.2785 2.7628 37.9423 2.7628C34.2098 2.7628 31.1621 5.74124 31.1621 9.36657C31.1621 13.0054 34.2098 15.9703 37.9423 15.9703C41.3391 15.9703 44.2392 13.6523 44.5211 10.3908C44.5346 10.1348 44.5614 9.8787 44.5614 9.66307C44.548 9.39353 44.5211 8.98921 44.5077 8.63881ZM74.0587 8.49056L82.7454 16.1321V3.01886H80.0199V10.3639L71.3466 2.60107V15.7412H74.0453V8.49056H74.0587ZM101.69 12.4528L99.1656 11.4555C98.4137 12.5741 97.1114 13.4771 95.7285 13.4771C93.4863 13.4771 91.6872 11.5364 91.6872 9.36657C91.6872 7.18328 93.4998 5.26954 95.7285 5.26954C97.1248 5.26954 98.4137 6.15902 99.1656 7.25067L101.69 6.25336C100.481 4.17789 98.2526 2.7628 95.7151 2.7628C91.9826 2.7628 88.9349 5.72776 88.9349 9.35309C88.9349 12.9919 91.9826 15.9569 95.7151 15.9569C98.2526 15.9703 100.481 14.5687 101.69 12.4528ZM108.081 15.9569C111.491 15.9569 113.693 13.8275 113.693 10.5795V3.01886H110.967V10.5795C110.967 12.9784 109.141 13.5984 108.081 13.5984C106.98 13.5984 105.154 12.9919 105.154 10.5795V3.01886H102.428V10.5795C102.428 13.8275 104.657 15.9569 108.081 15.9569ZM118.11 15.7278V11.7655H119.963C120.997 13.1536 121.936 14.434 122.97 15.7412H126.219C125.199 14.38 124.044 12.8437 122.97 11.469C124.541 10.7951 125.535 9.27223 125.535 7.42587C125.535 4.81132 123.695 3.00539 120.997 3.00539H115.398V15.7412L118.11 15.7278ZM118.11 9.36657V5.37735H120.997C122.594 5.37735 122.836 6.75202 122.836 7.41239C122.836 8.73315 121.842 9.36657 120.997 9.36657H118.11ZM127.71 11.8868L126.26 13.9892C127.428 15 129.227 15.9703 131.939 15.9703C134.919 15.9703 136.947 14.6631 136.947 12.0216C136.947 8.61185 133.698 8.34231 131.643 7.91105C130.502 7.66846 129.146 7.45283 129.146 6.54986C129.146 5.53908 130.529 5.29649 131.321 5.29649C132.543 5.29649 133.805 5.8221 134.879 6.60377L136.396 4.51482C135.013 3.49056 133.631 2.80323 131.429 2.80323C129.213 2.80323 126.434 3.62533 126.434 6.65768C126.434 9.7035 129.844 10.2965 131.429 10.5526C132.892 10.8086 134.235 11.0782 134.235 12.0889C134.235 12.8032 133.402 13.504 131.912 13.504C130.462 13.504 128.623 12.6415 127.71 11.8868ZM143.996 15.9703C147.741 15.9703 150.789 13.0054 150.789 9.35309C150.789 5.72776 147.741 2.74932 143.996 2.74932C140.263 2.74932 137.229 5.72776 137.229 9.35309C137.229 13.0189 140.263 15.9703 143.996 15.9703ZM143.996 5.25606C146.251 5.25606 148.064 7.16981 148.064 9.35309C148.064 11.5499 146.251 13.4771 143.996 13.4771C141.753 13.4771 139.927 11.5364 139.927 9.35309C139.927 7.18328 141.753 5.25606 143.996 5.25606ZM152.763 11.8868L151.313 13.9892C152.481 15 154.28 15.9703 156.992 15.9703C159.973 15.9703 162 14.6631 162 12.0216C162 8.61185 158.751 8.34231 156.697 7.91105C155.555 7.66846 154.199 7.45283 154.199 6.54986C154.199 5.53908 155.582 5.29649 156.374 5.29649C157.596 5.29649 158.858 5.8221 159.932 6.60377L161.45 4.51482C160.067 3.49056 158.684 2.80323 156.482 2.80323C154.267 2.80323 151.487 3.62533 151.487 6.65768C151.487 9.7035 154.898 10.2965 156.482 10.5526C157.945 10.8086 159.288 11.0782 159.288 12.0889C159.288 12.8032 158.456 13.504 156.965 13.504C155.515 13.504 153.676 12.6415 152.763 11.8868Z" fill="#666666"/>
<path fill-rule="evenodd" clip-rule="evenodd" d="M48.7236 15.7276V11.7653H50.5764C51.6102 13.1534 52.55 14.4338 53.5838 15.741H56.833C55.8126 14.3799 54.6579 12.8435 53.5838 11.4688C55.1547 10.7949 56.1482 9.27204 56.1482 7.42568C56.1482 4.81112 54.3088 3.00519 51.6102 3.00519H46.0115V15.741L48.7236 15.7276ZM48.7236 9.36638V5.37716H51.6102C53.2079 5.37716 53.4496 6.75182 53.4496 7.4122C53.4496 8.73295 52.456 9.36638 51.6102 9.36638H48.7236ZM57.0881 15.7276H60.0821L61.0488 13.7734H66.916L67.9095 15.7276H70.8901L63.9891 2.5874L57.0881 15.7276ZM62.3914 11.4284L63.9891 8.09953L65.6002 11.4284H62.3914Z" fill="#666666"/>
<path fill-rule="evenodd" clip-rule="evenodd" d="M29.8866 15C29.8866 23.2884 23.2004 30 14.9433 30C6.68622 30 0 23.2884 0 15C0 6.71159 6.68622 0 14.9433 0C23.2004 0 29.8866 6.71159 29.8866 15Z" fill="#0B0B0B"/>
<path fill-rule="evenodd" clip-rule="evenodd" d="M14.8359 18.1804L14.8896 13.2343L27.4699 13.3556C27.4834 13.5173 27.5102 13.679 27.5371 13.9082C27.5908 14.2451 27.5773 14.3664 27.6042 14.7437C27.8861 18.3286 26.463 21.954 24.2879 24.1777C22.1129 26.4014 19.0652 27.4931 15.1581 27.4526C13.2382 27.4392 11.5331 27.1292 10.0428 26.5362C8.55247 25.9432 7.22328 25.0537 6.05521 23.8542C4.94084 22.7087 4.08156 21.361 3.47738 19.8111C2.87321 18.2613 2.57783 16.644 2.59126 14.9459C2.60468 13.2073 2.92691 11.5901 3.54452 10.1076C4.16212 8.63861 5.0751 7.31786 6.28345 6.14535C7.47838 4.9998 8.86127 4.15074 10.4053 3.57123C11.9493 2.99171 13.6141 2.70869 15.3998 2.73565C17.7225 2.7626 19.8573 3.08605 21.549 4.16422C25.6842 6.77877 26.8255 10.5793 26.8926 10.8758L20.3943 10.9162C19.7365 9.9998 18.9846 9.31247 18.1522 8.85424C17.3198 8.39602 16.3799 8.16691 15.3461 8.15344C13.4127 8.13996 11.8822 8.75991 10.7544 10.0402C9.62656 11.3206 9.04924 13.0726 9.03581 15.2963C9.00896 17.547 9.55943 19.3259 10.6604 20.6197C11.7613 21.927 13.2785 22.5874 15.2118 22.6009C16.8498 22.6144 18.2193 22.2235 19.3202 21.4284C20.4212 20.6332 21.0791 19.582 21.267 18.2478L14.8359 18.1804Z" fill="white"/>
<path fill-rule="evenodd" clip-rule="evenodd" d="M37.0965 17.3585C35.4585 17.3585 34.0487 17.938 32.8807 19.097C31.726 20.2561 31.1353 21.6577 31.1353 23.2749C31.1353 24.9057 31.7126 26.2938 32.8807 27.4394C34.0353 28.5714 35.445 29.151 37.0965 29.151C38.7345 29.151 40.1442 28.5849 41.3123 27.4394C42.4804 26.2938 43.0577 24.9057 43.0577 23.2749C43.0577 21.6577 42.4669 20.2561 41.3123 19.097C40.1442 17.938 38.7345 17.3585 37.0965 17.3585ZM37.0965 19.717C38.0766 19.717 38.9224 20.0674 39.6206 20.7547C40.3322 21.4555 40.6813 22.2911 40.6813 23.2615C40.6813 24.2453 40.3322 25.0809 39.6206 25.7682C38.909 26.4555 38.0766 26.7925 37.0965 26.7925C36.1029 26.7925 35.2571 26.4421 34.5724 25.7682C33.8742 25.0809 33.5251 24.2453 33.5251 23.2615C33.5251 22.2911 33.8742 21.4555 34.5724 20.7547C35.2571 20.0674 36.1029 19.717 37.0965 19.717ZM43.6619 17.1968V29.097H46.0114V22.628L53.087 29.3127V17.3989H50.724V23.8679L43.6619 17.1968ZM54.1477 17.4528V29.097H61.2233V26.779H56.5107V17.4663L54.1477 17.4528ZM61.8409 29.0836H64.1905V17.4394H61.8409V29.0836ZM65.2511 17.1968V29.097H67.6007V22.628L74.6763 29.3127V17.3989H72.3133V23.8679L65.2511 17.1968ZM75.7369 17.4124V29.097H82.8125V26.779H78.1V24.4205H81.631V22.089H78.1V19.7439H82.8125V17.4124H75.7369Z" fill="#0B0B0B"/>
</svg>
