<svg width="16" height="16" viewBox="0 0 16 16" fill="none" xmlns="http://www.w3.org/2000/svg">
<path fill-rule="evenodd" clip-rule="evenodd" d="M7 15C7.55228 15 8 14.5523 8 14C8 13.4477 7.55228 13 7 13C6.44772 13 6 13.4477 6 14C6 14.5523 6.44772 15 7 15Z" stroke="#999999" stroke-linecap="round" stroke-linejoin="round"/>
<path fill-rule="evenodd" clip-rule="evenodd" d="M13 15C13.5523 15 14 14.5523 14 14C14 13.4477 13.5523 13 13 13C12.4477 13 12 13.4477 12 14C12 14.5523 12.4477 15 13 15Z" stroke="#999999" stroke-linecap="round" stroke-linejoin="round"/>
<path d="M1 1H3.54545L5.25091 9.92645C5.37101 10.5599 5.90724 11.0121 6.52364 10.9998H12.7091C13.3255 11.0121 13.8617 10.5599 13.9818 9.92645L15 4.33325H4.18182" stroke="#999999" stroke-linecap="round" stroke-linejoin="round"/>
</svg>
